<svg width="26" height="26" viewBox="0 0 26 26" fill="none" xmlns="http://www.w3.org/2000/svg">
<path d="M21.5122 3.675C19.1415 1.3125 15.9805 0 12.6439 0C5.70731 0 0.0878035 5.6 0.0878035 12.5125C0.0878035 14.7 0.702439 16.8875 1.7561 18.725L0 25.2L6.67317 23.45C8.51708 24.4125 10.5366 24.9375 12.6439 24.9375C19.5805 24.9375 25.2 19.3375 25.2 12.425C25.1122 9.1875 23.8829 6.0375 21.5122 3.675ZM18.7024 16.975C18.439 17.675 17.2098 18.375 16.5951 18.4625C16.0683 18.55 15.3659 18.55 14.6634 18.375C14.2244 18.2 13.6098 18.025 12.9073 17.675C9.74634 16.3625 7.72683 13.2125 7.55122 12.95C7.37561 12.775 6.23415 11.2875 6.23415 9.7125C6.23415 8.1375 7.02439 7.4375 7.2878 7.0875C7.55122 6.7375 7.90244 6.7375 8.16585 6.7375C8.34146 6.7375 8.60487 6.7375 8.78048 6.7375C8.95609 6.7375 9.21951 6.65 9.48293 7.2625C9.74634 7.875 10.361 9.45 10.4488 9.5375C10.5366 9.7125 10.5366 9.8875 10.4488 10.0625C10.361 10.2375 10.2732 10.4125 10.0976 10.5875C9.92195 10.7625 9.74634 11.025 9.65853 11.1125C9.48292 11.2875 9.30732 11.4625 9.48293 11.725C9.65854 12.075 10.2732 13.0375 11.239 13.9125C12.4683 14.9625 13.4341 15.3125 13.7854 15.4875C14.1366 15.6625 14.3122 15.575 14.4878 15.4C14.6634 15.225 15.2781 14.525 15.4537 14.175C15.6293 13.825 15.8927 13.9125 16.1561 14C16.4195 14.0875 18 14.875 18.2634 15.05C18.6146 15.225 18.7902 15.3125 18.878 15.4C18.9659 15.6625 18.9659 16.275 18.7024 16.975Z" fill="#5289FF"/>
</svg>
