<svg width="26" height="28" viewBox="0 0 26 28" fill="none" xmlns="http://www.w3.org/2000/svg">
<path d="M19.5047 0.655096C14.9309 -0.218365 10.1812 -0.218365 5.60733 0.655096C3.58429 1.09183 1.03351 3.53752 0.593717 5.45914C-0.197906 9.21502 -0.197906 13.0583 0.593717 16.8141C1.12147 18.7358 3.67225 21.1815 5.60733 21.6182C5.69529 21.6182 5.78324 21.7055 5.78324 21.7929V27.2957C5.78324 27.5577 6.13508 27.7324 6.311 27.4704L8.94974 24.7626C8.94974 24.7626 11.0607 22.579 11.4126 22.2296C11.4126 22.2296 11.5005 22.1423 11.5885 22.1423C14.2272 22.2296 16.9539 21.9676 19.5927 21.5308C21.6157 21.0941 24.1665 18.6484 24.6063 16.7268C25.3979 12.9709 25.3979 9.12768 24.6063 5.37179C24.0785 3.53752 21.5278 1.09183 19.5047 0.655096ZM19.5927 17.0762C19.1529 17.9496 18.6251 18.6484 17.7456 19.0851C17.4817 19.1725 17.2178 19.2598 16.9539 19.3472C16.6021 19.2598 16.3382 19.1725 16.0743 19.0851C13.2597 17.9496 10.6209 16.3774 8.50995 14.1064C7.36649 12.7962 6.39895 11.3113 5.60733 9.7391C5.2555 8.95298 4.90366 8.25421 4.63979 7.4681C4.37592 6.76933 4.8157 6.07056 5.25549 5.54648C5.69529 5.02241 6.22304 4.67302 6.83874 4.41098C7.27853 4.14894 7.71833 4.32364 8.07016 4.67302C8.77382 5.54648 9.47749 6.41994 10.0052 7.38075C10.3571 7.99218 10.2691 8.69095 9.6534 9.12768C9.47748 9.21502 9.38953 9.30237 9.21361 9.47706C9.12565 9.56441 8.94973 9.65175 8.86178 9.82645C8.68586 10.0885 8.68586 10.3505 8.77382 10.6126C9.47749 12.6215 10.7969 14.1938 12.8199 15.0672C13.1717 15.2419 13.4356 15.3293 13.8754 15.3293C14.4911 15.2419 14.755 14.5431 15.1948 14.1938C15.6346 13.8444 16.1623 13.8444 16.6901 14.1064C17.1298 14.3684 17.5696 14.7178 18.0974 15.0672C18.5372 15.4166 18.977 15.6786 19.4168 16.028C19.6806 16.2027 19.7686 16.6395 19.5927 17.0762ZM15.8984 10.5252C15.7225 10.5252 15.8105 10.5252 15.8984 10.5252C15.5466 10.5252 15.4586 10.3505 15.3707 10.0885C15.3707 9.91379 15.3707 9.65176 15.2827 9.47706C15.1948 9.12768 15.0189 8.77829 14.667 8.51625C14.4911 8.42891 14.3152 8.34156 14.1393 8.25421C13.8754 8.16687 13.6995 8.16687 13.4356 8.16687C13.1717 8.07952 13.0838 7.90483 13.0838 7.64279C13.0838 7.4681 13.3476 7.29341 13.5236 7.29341C14.9309 7.38075 15.9864 8.16687 16.1623 9.82645C16.1623 9.91379 16.1623 10.0885 16.1623 10.1758C16.1623 10.3505 16.0743 10.5252 15.8984 10.5252ZM15.0188 6.68198C14.5791 6.50729 14.1393 6.3326 13.6115 6.24525C13.4356 6.24525 13.1717 6.15791 12.9958 6.15791C12.7319 6.15791 12.556 5.98321 12.644 5.72118C12.644 5.45914 12.8199 5.28444 13.0838 5.37179C13.9634 5.45914 14.755 5.63383 15.5466 5.98321C17.1298 6.76933 18.0094 8.07952 18.2733 9.82645C18.2733 9.91379 18.2733 10.0011 18.2733 10.0885C18.2733 10.2632 18.2733 10.4379 18.2733 10.6999C18.2733 10.7873 18.2733 10.8746 18.2733 10.9619C18.1853 11.3113 17.5696 11.3987 17.4817 10.9619C17.4817 10.8746 17.3937 10.6999 17.3937 10.6126C17.3937 9.82645 17.2178 9.04033 16.866 8.34156C16.3382 7.55545 15.7225 7.03137 15.0188 6.68198ZM19.7686 11.9228C19.5047 11.9228 19.3288 11.6607 19.3288 11.3987C19.3288 10.8746 19.2408 10.3505 19.1529 9.82645C18.801 7.03137 16.5141 4.76037 13.7874 4.32364C13.3476 4.23629 12.9079 4.23629 12.556 4.14894C12.2921 4.14894 11.9403 4.14894 11.8524 3.79956C11.7644 3.53752 12.0283 3.27548 12.2921 3.27548C12.3801 3.27548 12.4681 3.27548 12.4681 3.27548C16.0743 3.36283 12.644 3.27548 12.4681 3.27548C16.1623 3.36283 19.2408 5.80852 19.8565 9.47706C19.9445 10.0885 20.0325 10.6999 20.0325 11.3987C20.2084 11.6607 20.0325 11.9228 19.7686 11.9228Z" fill="#5289FF"/>
</svg>
