<svg width="343" height="96" viewBox="0 0 343 96" fill="none" xmlns="http://www.w3.org/2000/svg">
<path d="M21.184 58.64C16.9173 58.64 13.376 58.0427 10.56 56.848C7.744 55.6107 5.61067 54.0107 4.16 52.048C2.70933 50.0853 1.94133 47.9947 1.856 45.776C1.856 45.4347 1.984 45.136 2.24 44.88C2.53867 44.5813 2.88 44.432 3.264 44.432H11.328C11.9253 44.432 12.3733 44.5387 12.672 44.752C13.0133 44.9653 13.312 45.2427 13.568 45.584C13.9093 46.224 14.3787 46.8427 14.976 47.44C15.616 48.0373 16.4267 48.528 17.408 48.912C18.432 49.2533 19.6907 49.424 21.184 49.424C23.6587 49.424 25.5147 49.04 26.752 48.272C28.032 47.504 28.672 46.4587 28.672 45.136C28.672 44.1973 28.3307 43.4293 27.648 42.832C26.9653 42.192 25.856 41.6373 24.32 41.168C22.8267 40.656 20.8213 40.144 18.304 39.632C15.0613 38.9493 12.288 38.0747 9.984 37.008C7.72267 35.8987 5.99467 34.4693 4.8 32.72C3.60533 30.928 3.008 28.7093 3.008 26.064C3.008 23.4613 3.73333 21.136 5.184 19.088C6.67733 17.04 8.74667 15.44 11.392 14.288C14.0373 13.136 17.1733 12.56 20.8 12.56C23.744 12.56 26.3253 12.944 28.544 13.712C30.8053 14.48 32.704 15.504 34.24 16.784C35.776 18.064 36.928 19.4293 37.696 20.88C38.5067 22.288 38.9333 23.6747 38.976 25.04C38.976 25.3813 38.848 25.7013 38.592 26C38.336 26.256 38.016 26.384 37.632 26.384H29.184C28.7147 26.384 28.3093 26.2987 27.968 26.128C27.6267 25.9573 27.328 25.68 27.072 25.296C26.816 24.3573 26.1333 23.5467 25.024 22.864C23.9573 22.1387 22.5493 21.776 20.8 21.776C18.9227 21.776 17.4507 22.1173 16.384 22.8C15.36 23.44 14.848 24.4427 14.848 25.808C14.848 26.6613 15.1253 27.408 15.68 28.048C16.2773 28.688 17.2373 29.2427 18.56 29.712C19.9253 30.1813 21.7813 30.672 24.128 31.184C28.0107 31.9093 31.1467 32.8267 33.536 33.936C35.9253 35.0027 37.6747 36.4107 38.784 38.16C39.8933 39.8667 40.448 42.0213 40.448 44.624C40.448 47.5253 39.616 50.0427 37.952 52.176C36.3307 54.2667 34.0693 55.8667 31.168 56.976C28.2667 58.0853 24.9387 58.64 21.184 58.64ZM57.1625 58C56.7358 58 56.3518 57.8507 56.0105 57.552C55.7118 57.2533 55.5625 56.8693 55.5625 56.4V42.64L40.7145 15.248C40.6718 15.12 40.6292 15.0133 40.5865 14.928C40.5438 14.8 40.5225 14.672 40.5225 14.544C40.5225 14.2027 40.6505 13.904 40.9065 13.648C41.2052 13.3493 41.5465 13.2 41.9305 13.2H49.9305C50.5705 13.2 51.0612 13.3707 51.4025 13.712C51.7865 14.0107 52.0212 14.288 52.1065 14.544L61.3225 31.056L70.5385 14.544C70.6665 14.288 70.9012 14.0107 71.2425 13.712C71.6265 13.3707 72.1385 13.2 72.7785 13.2H80.7785C81.1625 13.2 81.4825 13.3493 81.7385 13.648C81.9945 13.904 82.1225 14.2027 82.1225 14.544C82.1225 14.672 82.1012 14.8 82.0585 14.928C82.0585 15.0133 82.0372 15.12 81.9945 15.248L67.0825 42.64V56.4C67.0825 56.8693 66.9332 57.2533 66.6345 57.552C66.3358 57.8507 65.9518 58 65.4825 58H57.1625ZM88.205 58C87.7783 58 87.3943 57.8507 87.053 57.552C86.7543 57.2533 86.605 56.8693 86.605 56.4V14.8C86.605 14.3307 86.7543 13.9467 87.053 13.648C87.3943 13.3493 87.7783 13.2 88.205 13.2H95.117C95.7997 13.2 96.3117 13.392 96.653 13.776C97.037 14.1173 97.2717 14.3947 97.357 14.608L108.621 34.832L119.885 14.608C120.013 14.3947 120.226 14.1173 120.525 13.776C120.866 13.392 121.4 13.2 122.125 13.2H128.973C129.442 13.2 129.826 13.3493 130.125 13.648C130.466 13.9467 130.637 14.3307 130.637 14.8V56.4C130.637 56.8693 130.466 57.2533 130.125 57.552C129.826 57.8507 129.442 58 128.973 58H121.357C120.888 58 120.482 57.8507 120.141 57.552C119.842 57.2533 119.693 56.8693 119.693 56.4V32.4L112.461 45.776C112.29 46.16 112.034 46.5013 111.693 46.8C111.352 47.0987 110.882 47.248 110.285 47.248H106.957C106.36 47.248 105.89 47.0987 105.549 46.8C105.208 46.5013 104.93 46.16 104.717 45.776L97.485 32.4V56.4C97.485 56.8693 97.3357 57.2533 97.037 57.552C96.7383 57.8507 96.3543 58 95.885 58H88.205ZM140.143 58C139.673 58 139.289 57.8507 138.991 57.552C138.692 57.2533 138.543 56.8693 138.543 56.4V14.8C138.543 14.3307 138.692 13.9467 138.991 13.648C139.289 13.3493 139.673 13.2 140.143 13.2H158.063C161.604 13.2 164.676 13.7547 167.279 14.864C169.924 15.9307 171.972 17.552 173.423 19.728C174.916 21.904 175.663 24.656 175.663 27.984C175.663 31.2693 174.916 33.9787 173.423 36.112C171.972 38.2453 169.924 39.824 167.279 40.848C164.676 41.872 161.604 42.384 158.063 42.384H150.447V56.4C150.447 56.8693 150.276 57.2533 149.935 57.552C149.636 57.8507 149.252 58 148.783 58H140.143ZM150.255 33.552H157.743C159.577 33.552 161.028 33.0827 162.095 32.144C163.204 31.2053 163.759 29.776 163.759 27.856C163.759 26.2347 163.289 24.8693 162.351 23.76C161.412 22.6507 159.876 22.096 157.743 22.096H150.255V33.552ZM182.393 58C181.923 58 181.539 57.8507 181.241 57.552C180.942 57.2533 180.793 56.8693 180.793 56.4V14.8C180.793 14.3307 180.942 13.9467 181.241 13.648C181.539 13.3493 181.923 13.2 182.393 13.2H190.841C191.267 13.2 191.63 13.3493 191.929 13.648C192.27 13.9467 192.441 14.3307 192.441 14.8V48.336H211.769C212.238 48.336 212.622 48.5067 212.921 48.848C213.262 49.1467 213.433 49.5307 213.433 50V56.4C213.433 56.8693 213.262 57.2533 212.921 57.552C212.622 57.8507 212.238 58 211.769 58H182.393ZM219.58 58C219.111 58 218.727 57.8507 218.428 57.552C218.129 57.2533 217.98 56.8693 217.98 56.4V14.8C217.98 14.3307 218.129 13.9467 218.428 13.648C218.727 13.3493 219.111 13.2 219.58 13.2H249.468C249.937 13.2 250.321 13.3493 250.62 13.648C250.919 13.9467 251.068 14.3307 251.068 14.8V20.816C251.068 21.2853 250.919 21.6693 250.62 21.968C250.321 22.2667 249.937 22.416 249.468 22.416H229.052V31.056H248.06C248.529 31.056 248.913 31.2267 249.212 31.568C249.511 31.8667 249.66 32.2507 249.66 32.72V38.288C249.66 38.7147 249.511 39.0987 249.212 39.44C248.913 39.7387 248.529 39.888 248.06 39.888H229.052V48.784H249.98C250.449 48.784 250.833 48.9333 251.132 49.232C251.431 49.5307 251.58 49.9147 251.58 50.384V56.4C251.58 56.8693 251.431 57.2533 251.132 57.552C250.833 57.8507 250.449 58 249.98 58H219.58ZM255.487 58C255.103 58 254.762 57.872 254.463 57.616C254.207 57.3173 254.079 56.9973 254.079 56.656C254.079 56.528 254.1 56.4 254.143 56.272C254.186 56.144 254.25 56.016 254.335 55.888L268.287 35.152L255.359 15.312C255.231 15.056 255.167 14.8 255.167 14.544C255.167 14.2027 255.295 13.904 255.551 13.648C255.807 13.3493 256.127 13.2 256.511 13.2H265.791C266.431 13.2 266.922 13.3707 267.263 13.712C267.604 14.0107 267.839 14.288 267.967 14.544L275.647 26.192L283.391 14.544C283.562 14.288 283.818 14.0107 284.159 13.712C284.5 13.3707 284.991 13.2 285.631 13.2H294.399C294.783 13.2 295.103 13.3493 295.359 13.648C295.658 13.904 295.807 14.2027 295.807 14.544C295.807 14.8427 295.722 15.0987 295.551 15.312L282.559 35.088L296.639 55.888C296.724 56.016 296.767 56.144 296.767 56.272C296.81 56.4 296.831 56.528 296.831 56.656C296.831 56.9973 296.703 57.3173 296.447 57.616C296.191 57.872 295.871 58 295.487 58H285.951C285.311 58 284.799 57.8507 284.415 57.552C284.074 57.2107 283.839 56.9333 283.711 56.72L275.199 44.432L266.879 56.72C266.751 56.9333 266.516 57.2107 266.175 57.552C265.834 57.8507 265.343 58 264.703 58H255.487ZM314.163 58C313.736 58 313.352 57.8507 313.01 57.552C312.712 57.2533 312.562 56.8693 312.562 56.4V42.64L297.715 15.248C297.672 15.12 297.629 15.0133 297.587 14.928C297.544 14.8 297.523 14.672 297.523 14.544C297.523 14.2027 297.651 13.904 297.907 13.648C298.205 13.3493 298.547 13.2 298.931 13.2H306.931C307.571 13.2 308.061 13.3707 308.403 13.712C308.787 14.0107 309.021 14.288 309.107 14.544L318.323 31.056L327.539 14.544C327.667 14.288 327.901 14.0107 328.243 13.712C328.627 13.3707 329.139 13.2 329.779 13.2H337.779C338.163 13.2 338.483 13.3493 338.739 13.648C338.995 13.904 339.123 14.2027 339.123 14.544C339.123 14.672 339.101 14.8 339.059 14.928C339.059 15.0133 339.037 15.12 338.995 15.248L324.083 42.64V56.4C324.083 56.8693 323.933 57.2533 323.635 57.552C323.336 57.8507 322.952 58 322.483 58H314.163Z" fill="white"/>
<path d="M1.76 89C1.64267 89 1.552 88.968 1.488 88.904C1.424 88.8293 1.392 88.7387 1.392 88.632V78.184C1.392 78.0667 1.424 77.976 1.488 77.912C1.552 77.8373 1.64267 77.8 1.76 77.8H2.576C2.69333 77.8 2.784 77.8373 2.848 77.912C2.92267 77.976 2.96 78.0667 2.96 78.184V82.6H8.464V78.184C8.464 78.0667 8.496 77.976 8.56 77.912C8.63467 77.8373 8.72533 77.8 8.832 77.8H9.648C9.76533 77.8 9.856 77.8373 9.92 77.912C9.99467 77.976 10.032 78.0667 10.032 78.184V88.632C10.032 88.7387 9.99467 88.8293 9.92 88.904C9.856 88.968 9.76533 89 9.648 89H8.832C8.72533 89 8.63467 88.968 8.56 88.904C8.496 88.8293 8.464 88.7387 8.464 88.632V84.04H2.96V88.632C2.96 88.7387 2.92267 88.8293 2.848 88.904C2.784 88.968 2.69333 89 2.576 89H1.76ZM15.7423 89.16C14.6436 89.16 13.7689 88.824 13.1183 88.152C12.4676 87.4693 12.1103 86.5413 12.0463 85.368C12.0356 85.2293 12.0303 85.0533 12.0303 84.84C12.0303 84.616 12.0356 84.4347 12.0463 84.296C12.0889 83.5387 12.2649 82.8773 12.5743 82.312C12.8836 81.736 13.3049 81.2933 13.8383 80.984C14.3823 80.6747 15.0169 80.52 15.7423 80.52C16.5529 80.52 17.2303 80.6907 17.7743 81.032C18.3289 81.3733 18.7503 81.8587 19.0383 82.488C19.3263 83.1173 19.4703 83.8533 19.4703 84.696V84.968C19.4703 85.0853 19.4329 85.176 19.3583 85.24C19.2943 85.304 19.2089 85.336 19.1023 85.336H13.5663C13.5663 85.3467 13.5663 85.368 13.5663 85.4C13.5663 85.432 13.5663 85.4587 13.5663 85.48C13.5876 85.9173 13.6836 86.328 13.8543 86.712C14.0249 87.0853 14.2703 87.3893 14.5903 87.624C14.9103 87.8587 15.2943 87.976 15.7423 87.976C16.1263 87.976 16.4463 87.9173 16.7023 87.8C16.9583 87.6827 17.1663 87.5547 17.3263 87.416C17.4863 87.2667 17.5929 87.1547 17.6463 87.08C17.7423 86.9413 17.8169 86.8613 17.8703 86.84C17.9236 86.808 18.0089 86.792 18.1263 86.792H18.8943C19.0009 86.792 19.0863 86.824 19.1503 86.888C19.2249 86.9413 19.2569 87.0213 19.2463 87.128C19.2356 87.288 19.1503 87.4853 18.9903 87.72C18.8303 87.944 18.6009 88.168 18.3023 88.392C18.0036 88.616 17.6409 88.8027 17.2143 88.952C16.7876 89.0907 16.2969 89.16 15.7423 89.16ZM13.5663 84.232H17.9503V84.184C17.9503 83.704 17.8596 83.2773 17.6783 82.904C17.5076 82.5307 17.2569 82.2373 16.9263 82.024C16.5956 81.8 16.2009 81.688 15.7423 81.688C15.2836 81.688 14.8889 81.8 14.5583 82.024C14.2383 82.2373 13.9929 82.5307 13.8223 82.904C13.6516 83.2773 13.5663 83.704 13.5663 84.184V84.232ZM21.5754 89C21.4794 89 21.394 88.968 21.3194 88.904C21.2554 88.8293 21.2234 88.7493 21.2234 88.664V81.048C21.2234 80.9413 21.2554 80.856 21.3194 80.792C21.394 80.7173 21.4847 80.68 21.5914 80.68H22.3594C22.466 80.68 22.5514 80.7173 22.6154 80.792C22.6794 80.856 22.7114 80.9413 22.7114 81.048V87.832L22.2954 87.4L27.1434 80.92C27.1967 80.856 27.2554 80.8027 27.3194 80.76C27.3834 80.7067 27.4634 80.68 27.5594 80.68H28.2954C28.3807 80.68 28.4554 80.712 28.5194 80.776C28.594 80.84 28.6314 80.9147 28.6314 81V88.632C28.6314 88.7387 28.594 88.8293 28.5194 88.904C28.4554 88.968 28.37 89 28.2634 89H27.5114C27.394 89 27.3034 88.968 27.2394 88.904C27.1754 88.8293 27.1434 88.7387 27.1434 88.632V82.248L27.5914 82.232L22.7114 88.76C22.6687 88.8133 22.6154 88.8667 22.5514 88.92C22.4874 88.9733 22.402 89 22.2954 89H21.5754ZM24.9674 79.576C24.3487 79.576 23.8634 79.48 23.5114 79.288C23.1594 79.096 22.914 78.8507 22.7754 78.552C22.6367 78.2427 22.5674 77.9227 22.5674 77.592C22.5674 77.5067 22.5887 77.4373 22.6314 77.384C22.6847 77.32 22.7647 77.288 22.8714 77.288H23.4154C23.5114 77.288 23.586 77.32 23.6394 77.384C23.6927 77.4373 23.7194 77.5067 23.7194 77.592C23.7194 77.8373 23.7994 78.0667 23.9594 78.28C24.13 78.4827 24.466 78.584 24.9674 78.584C25.4794 78.584 25.8154 78.4827 25.9754 78.28C26.1354 78.0667 26.2154 77.8373 26.2154 77.592C26.2154 77.5067 26.242 77.4373 26.2954 77.384C26.3487 77.32 26.4234 77.288 26.5194 77.288H27.0794C27.1754 77.288 27.25 77.32 27.3034 77.384C27.3567 77.4373 27.3834 77.5067 27.3834 77.592C27.3834 77.9227 27.3087 78.2427 27.1594 78.552C27.0207 78.8507 26.7754 79.096 26.4234 79.288C26.0714 79.48 25.586 79.576 24.9674 79.576ZM31.1974 92.04C31.0907 92.04 31 92.0027 30.9254 91.928C30.8614 91.864 30.8294 91.7787 30.8294 91.672V81.048C30.8294 80.9413 30.8614 80.856 30.9254 80.792C31 80.7173 31.0907 80.68 31.1974 80.68H31.9334C32.04 80.68 32.1254 80.7173 32.1894 80.792C32.264 80.856 32.3014 80.9413 32.3014 81.048V81.752C32.5574 81.4 32.8987 81.1067 33.3254 80.872C33.752 80.6373 34.2854 80.52 34.9254 80.52C35.5227 80.52 36.0294 80.6213 36.4454 80.824C36.872 81.0267 37.2187 81.304 37.4854 81.656C37.7627 82.008 37.9707 82.408 38.1094 82.856C38.248 83.304 38.3227 83.784 38.3334 84.296C38.344 84.4667 38.3494 84.648 38.3494 84.84C38.3494 85.032 38.344 85.2133 38.3334 85.384C38.3227 85.8853 38.248 86.3653 38.1094 86.824C37.9707 87.272 37.7627 87.672 37.4854 88.024C37.2187 88.3653 36.872 88.6427 36.4454 88.856C36.0294 89.0587 35.5227 89.16 34.9254 89.16C34.3067 89.16 33.784 89.048 33.3574 88.824C32.9414 88.5893 32.6 88.3013 32.3334 87.96V91.672C32.3334 91.7787 32.3014 91.864 32.2374 91.928C32.1734 92.0027 32.0827 92.04 31.9654 92.04H31.1974ZM34.5894 87.864C35.144 87.864 35.576 87.7467 35.8854 87.512C36.2054 87.2667 36.4347 86.952 36.5734 86.568C36.712 86.1733 36.792 85.752 36.8134 85.304C36.824 84.9947 36.824 84.6853 36.8134 84.376C36.792 83.928 36.712 83.512 36.5734 83.128C36.4347 82.7333 36.2054 82.4187 35.8854 82.184C35.576 81.9387 35.144 81.816 34.5894 81.816C34.0667 81.816 33.64 81.9387 33.3094 82.184C32.9894 82.4293 32.7494 82.744 32.5894 83.128C32.44 83.5013 32.3547 83.8853 32.3334 84.28C32.3227 84.4507 32.3174 84.6533 32.3174 84.888C32.3174 85.1227 32.3227 85.3307 32.3334 85.512C32.344 85.8853 32.4294 86.2533 32.5894 86.616C32.76 86.9787 33.0107 87.2773 33.3414 87.512C33.672 87.7467 34.088 87.864 34.5894 87.864ZM43.5926 89.16C42.782 89.16 42.1046 89.0053 41.5606 88.696C41.0166 88.3867 40.6006 87.96 40.3126 87.416C40.0246 86.8613 39.8646 86.232 39.8326 85.528C39.822 85.3467 39.8166 85.1173 39.8166 84.84C39.8166 84.552 39.822 84.3227 39.8326 84.152C39.8646 83.4373 40.0246 82.808 40.3126 82.264C40.6113 81.72 41.0326 81.2933 41.5766 80.984C42.1206 80.6747 42.7926 80.52 43.5926 80.52C44.3926 80.52 45.0646 80.6747 45.6086 80.984C46.1526 81.2933 46.5686 81.72 46.8566 82.264C47.1553 82.808 47.3206 83.4373 47.3526 84.152C47.3633 84.3227 47.3686 84.552 47.3686 84.84C47.3686 85.1173 47.3633 85.3467 47.3526 85.528C47.3206 86.232 47.1606 86.8613 46.8726 87.416C46.5846 87.96 46.1686 88.3867 45.6246 88.696C45.0806 89.0053 44.4033 89.16 43.5926 89.16ZM43.5926 87.928C44.254 87.928 44.782 87.72 45.1766 87.304C45.5713 86.8773 45.7846 86.2587 45.8166 85.448C45.8273 85.288 45.8326 85.0853 45.8326 84.84C45.8326 84.5947 45.8273 84.392 45.8166 84.232C45.7846 83.4213 45.5713 82.808 45.1766 82.392C44.782 81.9653 44.254 81.752 43.5926 81.752C42.9313 81.752 42.398 81.9653 41.9926 82.392C41.598 82.808 41.39 83.4213 41.3686 84.232C41.358 84.392 41.3526 84.5947 41.3526 84.84C41.3526 85.0853 41.358 85.288 41.3686 85.448C41.39 86.2587 41.598 86.8773 41.9926 87.304C42.398 87.72 42.9313 87.928 43.5926 87.928ZM49.5641 89C49.4575 89 49.3721 88.968 49.3081 88.904C49.2441 88.84 49.2121 88.7547 49.2121 88.648V80.984C49.2121 80.8987 49.2441 80.8293 49.3081 80.776C49.3828 80.712 49.4575 80.68 49.5321 80.68H50.3481C50.5188 80.68 50.6521 80.7653 50.7481 80.936L53.4681 86.024L56.2041 80.936C56.3001 80.7653 56.4335 80.68 56.6041 80.68H57.4041C57.4895 80.68 57.5641 80.712 57.6281 80.776C57.6921 80.8293 57.7241 80.8987 57.7241 80.984V88.648C57.7241 88.7547 57.6921 88.84 57.6281 88.904C57.5641 88.968 57.4841 89 57.3881 89H56.6041C56.4975 89 56.4121 88.968 56.3481 88.904C56.2841 88.84 56.2521 88.7547 56.2521 88.648V82.264L56.8121 82.328L54.2041 87.256C54.1508 87.3627 54.0868 87.4587 54.0121 87.544C53.9375 87.6293 53.8255 87.672 53.6761 87.672H53.2601C53.1215 87.672 53.0148 87.6293 52.9401 87.544C52.8655 87.4587 52.7961 87.3627 52.7321 87.256L50.2041 82.568L50.7001 82.52V88.648C50.7001 88.7547 50.6681 88.84 50.6041 88.904C50.5401 88.968 50.4548 89 50.3481 89H49.5641ZM63.2704 89.16C62.1717 89.16 61.297 88.824 60.6464 88.152C59.9957 87.4693 59.6384 86.5413 59.5744 85.368C59.5637 85.2293 59.5584 85.0533 59.5584 84.84C59.5584 84.616 59.5637 84.4347 59.5744 84.296C59.617 83.5387 59.793 82.8773 60.1024 82.312C60.4117 81.736 60.833 81.2933 61.3664 80.984C61.9104 80.6747 62.545 80.52 63.2704 80.52C64.081 80.52 64.7584 80.6907 65.3024 81.032C65.857 81.3733 66.2784 81.8587 66.5664 82.488C66.8544 83.1173 66.9984 83.8533 66.9984 84.696V84.968C66.9984 85.0853 66.961 85.176 66.8864 85.24C66.8224 85.304 66.737 85.336 66.6304 85.336H61.0944C61.0944 85.3467 61.0944 85.368 61.0944 85.4C61.0944 85.432 61.0944 85.4587 61.0944 85.48C61.1157 85.9173 61.2117 86.328 61.3824 86.712C61.553 87.0853 61.7984 87.3893 62.1184 87.624C62.4384 87.8587 62.8224 87.976 63.2704 87.976C63.6544 87.976 63.9744 87.9173 64.2304 87.8C64.4864 87.6827 64.6944 87.5547 64.8544 87.416C65.0144 87.2667 65.121 87.1547 65.1744 87.08C65.2704 86.9413 65.345 86.8613 65.3984 86.84C65.4517 86.808 65.537 86.792 65.6544 86.792H66.4224C66.529 86.792 66.6144 86.824 66.6784 86.888C66.753 86.9413 66.785 87.0213 66.7744 87.128C66.7637 87.288 66.6784 87.4853 66.5184 87.72C66.3584 87.944 66.129 88.168 65.8304 88.392C65.5317 88.616 65.169 88.8027 64.7424 88.952C64.3157 89.0907 63.825 89.16 63.2704 89.16ZM61.0944 84.232H65.4784V84.184C65.4784 83.704 65.3877 83.2773 65.2064 82.904C65.0357 82.5307 64.785 82.2373 64.4544 82.024C64.1237 81.8 63.729 81.688 63.2704 81.688C62.8117 81.688 62.417 81.8 62.0864 82.024C61.7664 82.2373 61.521 82.5307 61.3504 82.904C61.1797 83.2773 61.0944 83.704 61.0944 84.184V84.232ZM69.1355 92.04C69.0288 92.04 68.9382 92.0027 68.8635 91.928C68.7995 91.864 68.7675 91.7787 68.7675 91.672V81.048C68.7675 80.9413 68.7995 80.856 68.8635 80.792C68.9382 80.7173 69.0288 80.68 69.1355 80.68H69.8715C69.9782 80.68 70.0635 80.7173 70.1275 80.792C70.2022 80.856 70.2395 80.9413 70.2395 81.048V81.752C70.4955 81.4 70.8368 81.1067 71.2635 80.872C71.6902 80.6373 72.2235 80.52 72.8635 80.52C73.4608 80.52 73.9675 80.6213 74.3835 80.824C74.8102 81.0267 75.1568 81.304 75.4235 81.656C75.7008 82.008 75.9088 82.408 76.0475 82.856C76.1862 83.304 76.2608 83.784 76.2715 84.296C76.2822 84.4667 76.2875 84.648 76.2875 84.84C76.2875 85.032 76.2822 85.2133 76.2715 85.384C76.2608 85.8853 76.1862 86.3653 76.0475 86.824C75.9088 87.272 75.7008 87.672 75.4235 88.024C75.1568 88.3653 74.8102 88.6427 74.3835 88.856C73.9675 89.0587 73.4608 89.16 72.8635 89.16C72.2448 89.16 71.7222 89.048 71.2955 88.824C70.8795 88.5893 70.5382 88.3013 70.2715 87.96V91.672C70.2715 91.7787 70.2395 91.864 70.1755 91.928C70.1115 92.0027 70.0208 92.04 69.9035 92.04H69.1355ZM72.5275 87.864C73.0822 87.864 73.5142 87.7467 73.8235 87.512C74.1435 87.2667 74.3728 86.952 74.5115 86.568C74.6502 86.1733 74.7302 85.752 74.7515 85.304C74.7622 84.9947 74.7622 84.6853 74.7515 84.376C74.7302 83.928 74.6502 83.512 74.5115 83.128C74.3728 82.7333 74.1435 82.4187 73.8235 82.184C73.5142 81.9387 73.0822 81.816 72.5275 81.816C72.0048 81.816 71.5782 81.9387 71.2475 82.184C70.9275 82.4293 70.6875 82.744 70.5275 83.128C70.3782 83.5013 70.2928 83.8853 70.2715 84.28C70.2608 84.4507 70.2555 84.6533 70.2555 84.888C70.2555 85.1227 70.2608 85.3307 70.2715 85.512C70.2822 85.8853 70.3675 86.2533 70.5275 86.616C70.6982 86.9787 70.9488 87.2773 71.2795 87.512C71.6102 87.7467 72.0262 87.864 72.5275 87.864ZM81.4348 89.16C80.3361 89.16 79.4614 88.824 78.8108 88.152C78.1601 87.4693 77.8028 86.5413 77.7388 85.368C77.7281 85.2293 77.7228 85.0533 77.7228 84.84C77.7228 84.616 77.7281 84.4347 77.7388 84.296C77.7814 83.5387 77.9574 82.8773 78.2668 82.312C78.5761 81.736 78.9974 81.2933 79.5308 80.984C80.0748 80.6747 80.7094 80.52 81.4348 80.52C82.2454 80.52 82.9228 80.6907 83.4668 81.032C84.0214 81.3733 84.4428 81.8587 84.7308 82.488C85.0188 83.1173 85.1628 83.8533 85.1628 84.696V84.968C85.1628 85.0853 85.1254 85.176 85.0508 85.24C84.9868 85.304 84.9014 85.336 84.7948 85.336H79.2588C79.2588 85.3467 79.2588 85.368 79.2588 85.4C79.2588 85.432 79.2588 85.4587 79.2588 85.48C79.2801 85.9173 79.3761 86.328 79.5468 86.712C79.7174 87.0853 79.9628 87.3893 80.2828 87.624C80.6028 87.8587 80.9868 87.976 81.4348 87.976C81.8188 87.976 82.1388 87.9173 82.3948 87.8C82.6508 87.6827 82.8588 87.5547 83.0188 87.416C83.1788 87.2667 83.2854 87.1547 83.3388 87.08C83.4348 86.9413 83.5094 86.8613 83.5628 86.84C83.6161 86.808 83.7014 86.792 83.8188 86.792H84.5868C84.6934 86.792 84.7788 86.824 84.8428 86.888C84.9174 86.9413 84.9494 87.0213 84.9388 87.128C84.9281 87.288 84.8428 87.4853 84.6828 87.72C84.5228 87.944 84.2934 88.168 83.9948 88.392C83.6961 88.616 83.3334 88.8027 82.9068 88.952C82.4801 89.0907 81.9894 89.16 81.4348 89.16ZM79.2588 84.232H83.6428V84.184C83.6428 83.704 83.5521 83.2773 83.3708 82.904C83.2001 82.5307 82.9494 82.2373 82.6188 82.024C82.2881 81.8 81.8934 81.688 81.4348 81.688C80.9761 81.688 80.5814 81.8 80.2508 82.024C79.9308 82.2373 79.6854 82.5307 79.5148 82.904C79.3441 83.2773 79.2588 83.704 79.2588 84.184V84.232ZM86.4199 89C86.3239 89 86.2439 88.9787 86.1799 88.936C86.1265 88.8933 86.0999 88.8293 86.0999 88.744C86.0999 88.6907 86.1265 88.6213 86.1799 88.536L88.9159 84.648L86.4999 81.128C86.4785 81.096 86.4625 81.064 86.4519 81.032C86.4412 80.9893 86.4359 80.9573 86.4359 80.936C86.4359 80.8507 86.4625 80.7867 86.5159 80.744C86.5799 80.7013 86.6599 80.68 86.7559 80.68H87.5879C87.6945 80.68 87.7799 80.7013 87.8439 80.744C87.9079 80.7867 87.9665 80.8453 88.0199 80.92L90.1799 84.12H91.3959V81.048C91.3959 80.9413 91.4279 80.856 91.4919 80.792C91.5665 80.7173 91.6572 80.68 91.7639 80.68H92.4999C92.6172 80.68 92.7079 80.7173 92.7719 80.792C92.8359 80.856 92.8679 80.9413 92.8679 81.048V84.12H94.0359L96.2279 80.92C96.2705 80.8453 96.3239 80.7867 96.3879 80.744C96.4625 80.7013 96.5479 80.68 96.6439 80.68H97.4919C97.5879 80.68 97.6625 80.7013 97.7159 80.744C97.7799 80.7867 97.8119 80.8507 97.8119 80.936C97.8119 80.9573 97.8012 80.9893 97.7799 81.032C97.7692 81.064 97.7532 81.096 97.7319 81.128L95.3319 84.648L98.0679 88.536C98.1105 88.6 98.1319 88.6693 98.1319 88.744C98.1319 88.8293 98.1052 88.8933 98.0519 88.936C97.9985 88.9787 97.9185 89 97.8119 89H96.8519C96.7452 89 96.6545 88.9787 96.5799 88.936C96.5159 88.8933 96.4625 88.8347 96.4199 88.76L94.0839 85.4H92.8679V88.632C92.8679 88.7387 92.8359 88.8293 92.7719 88.904C92.7079 88.968 92.6172 89 92.4999 89H91.7639C91.6572 89 91.5665 88.968 91.4919 88.904C91.4279 88.8293 91.3959 88.7387 91.3959 88.632V85.4H90.1799L87.8119 88.76C87.7799 88.8347 87.7265 88.8933 87.6519 88.936C87.5879 88.9787 87.5025 89 87.3959 89H86.4199ZM99.8895 89C99.7828 89 99.6922 88.968 99.6175 88.904C99.5535 88.8293 99.5215 88.7387 99.5215 88.632V81.048C99.5215 80.9413 99.5535 80.856 99.6175 80.792C99.6922 80.7173 99.7828 80.68 99.8895 80.68H100.658C100.764 80.68 100.85 80.7173 100.914 80.792C100.978 80.856 101.01 80.9413 101.01 81.048V88.632C101.01 88.7387 100.978 88.8293 100.914 88.904C100.85 88.968 100.764 89 100.658 89H99.8895ZM99.7615 79.128C99.6548 79.128 99.5642 79.096 99.4895 79.032C99.4255 78.9573 99.3935 78.8667 99.3935 78.76V77.896C99.3935 77.7893 99.4255 77.704 99.4895 77.64C99.5642 77.5653 99.6548 77.528 99.7615 77.528H100.77C100.876 77.528 100.962 77.5653 101.026 77.64C101.1 77.704 101.138 77.7893 101.138 77.896V78.76C101.138 78.8667 101.1 78.9573 101.026 79.032C100.962 79.096 100.876 79.128 100.77 79.128H99.7615ZM106.518 90.76C106.412 90.76 106.321 90.7227 106.246 90.648C106.182 90.584 106.15 90.4987 106.15 90.392V88.088C106.15 87.9813 106.182 87.896 106.246 87.832C106.321 87.7573 106.412 87.72 106.518 87.72H106.598C106.886 87.7093 107.132 87.5493 107.334 87.24C107.537 86.92 107.692 86.424 107.798 85.752C107.905 85.0693 107.958 84.184 107.958 83.096V81.048C107.958 80.9413 107.99 80.856 108.054 80.792C108.129 80.7173 108.22 80.68 108.326 80.68H113.43C113.537 80.68 113.622 80.7173 113.686 80.792C113.761 80.856 113.798 80.9413 113.798 81.048V87.688H114.55C114.668 87.688 114.758 87.7253 114.822 87.8C114.886 87.864 114.918 87.9493 114.918 88.056V90.392C114.918 90.4987 114.886 90.584 114.822 90.648C114.758 90.7227 114.668 90.76 114.55 90.76H113.798C113.692 90.76 113.601 90.7227 113.526 90.648C113.462 90.584 113.43 90.4987 113.43 90.392V89H107.638V90.392C107.638 90.4987 107.601 90.584 107.526 90.648C107.462 90.7227 107.377 90.76 107.27 90.76H106.518ZM108.502 87.72L112.31 87.688V81.96H109.414V83.272C109.414 84.4027 109.334 85.3307 109.174 86.056C109.014 86.7707 108.79 87.3253 108.502 87.72ZM116.032 89C115.925 89 115.835 88.9627 115.76 88.888C115.685 88.8133 115.648 88.7227 115.648 88.616V88.024C115.648 87.8 115.76 87.6827 115.984 87.672C116.315 87.6613 116.592 87.5067 116.816 87.208C117.04 86.8987 117.211 86.4133 117.328 85.752C117.445 85.08 117.504 84.1947 117.504 83.096V81.048C117.504 80.9413 117.536 80.856 117.6 80.792C117.675 80.7173 117.765 80.68 117.872 80.68H122.96C123.067 80.68 123.152 80.7173 123.216 80.792C123.291 80.856 123.328 80.9413 123.328 81.048V88.632C123.328 88.7387 123.291 88.8293 123.216 88.904C123.152 88.968 123.067 89 122.96 89H122.192C122.085 89 122 88.968 121.936 88.904C121.872 88.8293 121.84 88.7387 121.84 88.632V81.96H118.96V83.272C118.96 84.296 118.901 85.176 118.784 85.912C118.667 86.6373 118.485 87.2293 118.24 87.688C118.005 88.136 117.701 88.4667 117.328 88.68C116.965 88.8933 116.533 89 116.032 89ZM130.737 89C130.62 89 130.529 88.968 130.465 88.904C130.401 88.8293 130.369 88.7387 130.369 88.632V86.024H128.529V85.944C127.527 85.944 126.78 85.6987 126.289 85.208C125.809 84.7067 125.569 84.072 125.569 83.304C125.569 82.408 125.831 81.7467 126.353 81.32C126.887 80.8933 127.687 80.68 128.753 80.68H131.505C131.612 80.68 131.697 80.7173 131.761 80.792C131.836 80.856 131.873 80.9413 131.873 81.048V88.632C131.873 88.7387 131.836 88.8293 131.761 88.904C131.697 88.968 131.612 89 131.505 89H130.737ZM125.665 89C125.569 89 125.489 88.968 125.425 88.904C125.361 88.84 125.329 88.7653 125.329 88.68C125.329 88.6373 125.335 88.5947 125.345 88.552C125.367 88.4987 125.399 88.4453 125.441 88.392L127.345 85.576L128.881 85.688L126.849 88.76C126.807 88.8133 126.748 88.8667 126.673 88.92C126.599 88.9733 126.519 89 126.433 89H125.665ZM128.577 84.824H130.385V81.88H128.705C128.108 81.88 127.665 81.9867 127.377 82.2C127.1 82.4027 126.961 82.7707 126.961 83.304C126.961 83.7413 127.089 84.104 127.345 84.392C127.612 84.68 128.023 84.824 128.577 84.824ZM138.242 92.04C138.136 92.04 138.045 92.0027 137.97 91.928C137.906 91.864 137.874 91.7787 137.874 91.672V81.048C137.874 80.9413 137.906 80.856 137.97 80.792C138.045 80.7173 138.136 80.68 138.242 80.68H138.978C139.085 80.68 139.17 80.7173 139.234 80.792C139.309 80.856 139.346 80.9413 139.346 81.048V81.752C139.602 81.4 139.944 81.1067 140.37 80.872C140.797 80.6373 141.33 80.52 141.97 80.52C142.568 80.52 143.074 80.6213 143.49 80.824C143.917 81.0267 144.264 81.304 144.53 81.656C144.808 82.008 145.016 82.408 145.154 82.856C145.293 83.304 145.368 83.784 145.378 84.296C145.389 84.4667 145.394 84.648 145.394 84.84C145.394 85.032 145.389 85.2133 145.378 85.384C145.368 85.8853 145.293 86.3653 145.154 86.824C145.016 87.272 144.808 87.672 144.53 88.024C144.264 88.3653 143.917 88.6427 143.49 88.856C143.074 89.0587 142.568 89.16 141.97 89.16C141.352 89.16 140.829 89.048 140.402 88.824C139.986 88.5893 139.645 88.3013 139.378 87.96V91.672C139.378 91.7787 139.346 91.864 139.282 91.928C139.218 92.0027 139.128 92.04 139.01 92.04H138.242ZM141.634 87.864C142.189 87.864 142.621 87.7467 142.93 87.512C143.25 87.2667 143.48 86.952 143.618 86.568C143.757 86.1733 143.837 85.752 143.858 85.304C143.869 84.9947 143.869 84.6853 143.858 84.376C143.837 83.928 143.757 83.512 143.618 83.128C143.48 82.7333 143.25 82.4187 142.93 82.184C142.621 81.9387 142.189 81.816 141.634 81.816C141.112 81.816 140.685 81.9387 140.354 82.184C140.034 82.4293 139.794 82.744 139.634 83.128C139.485 83.5013 139.4 83.8853 139.378 84.28C139.368 84.4507 139.362 84.6533 139.362 84.888C139.362 85.1227 139.368 85.3307 139.378 85.512C139.389 85.8853 139.474 86.2533 139.634 86.616C139.805 86.9787 140.056 87.2773 140.386 87.512C140.717 87.7467 141.133 87.864 141.634 87.864ZM150.638 89.16C149.827 89.16 149.15 89.0053 148.606 88.696C148.062 88.3867 147.646 87.96 147.358 87.416C147.07 86.8613 146.91 86.232 146.878 85.528C146.867 85.3467 146.862 85.1173 146.862 84.84C146.862 84.552 146.867 84.3227 146.878 84.152C146.91 83.4373 147.07 82.808 147.358 82.264C147.656 81.72 148.078 81.2933 148.622 80.984C149.166 80.6747 149.838 80.52 150.638 80.52C151.438 80.52 152.11 80.6747 152.654 80.984C153.198 81.2933 153.614 81.72 153.902 82.264C154.2 82.808 154.366 83.4373 154.398 84.152C154.408 84.3227 154.414 84.552 154.414 84.84C154.414 85.1173 154.408 85.3467 154.398 85.528C154.366 86.232 154.206 86.8613 153.918 87.416C153.63 87.96 153.214 88.3867 152.67 88.696C152.126 89.0053 151.448 89.16 150.638 89.16ZM150.638 87.928C151.299 87.928 151.827 87.72 152.222 87.304C152.616 86.8773 152.83 86.2587 152.862 85.448C152.872 85.288 152.878 85.0853 152.878 84.84C152.878 84.5947 152.872 84.392 152.862 84.232C152.83 83.4213 152.616 82.808 152.222 82.392C151.827 81.9653 151.299 81.752 150.638 81.752C149.976 81.752 149.443 81.9653 149.038 82.392C148.643 82.808 148.435 83.4213 148.414 84.232C148.403 84.392 148.398 84.5947 148.398 84.84C148.398 85.0853 148.403 85.288 148.414 85.448C148.435 86.2587 148.643 86.8773 149.038 87.304C149.443 87.72 149.976 87.928 150.638 87.928ZM159.153 89.16C158.524 89.16 157.99 89.0853 157.553 88.936C157.126 88.776 156.78 88.5787 156.513 88.344C156.257 88.0987 156.07 87.848 155.953 87.592C155.836 87.3253 155.772 87.08 155.761 86.856C155.761 86.76 155.793 86.6853 155.857 86.632C155.921 86.568 155.996 86.536 156.081 86.536H156.833C156.929 86.536 157.009 86.5627 157.073 86.616C157.137 86.6587 157.185 86.7387 157.217 86.856C157.345 87.2613 157.59 87.544 157.953 87.704C158.316 87.864 158.758 87.944 159.281 87.944C159.622 87.944 159.937 87.9013 160.225 87.816C160.513 87.72 160.737 87.5707 160.897 87.368C161.068 87.1653 161.153 86.9147 161.153 86.616C161.153 86.1787 161.025 85.848 160.769 85.624C160.524 85.4 160.14 85.288 159.617 85.288H158.737C158.63 85.288 158.545 85.256 158.481 85.192C158.417 85.128 158.385 85.0427 158.385 84.936V84.504C158.385 84.408 158.417 84.328 158.481 84.264C158.545 84.1893 158.63 84.152 158.737 84.152H159.521C159.958 84.152 160.294 84.0667 160.529 83.896C160.764 83.7253 160.881 83.4533 160.881 83.08C160.881 82.856 160.828 82.6427 160.721 82.44C160.614 82.2373 160.433 82.072 160.177 81.944C159.932 81.8053 159.59 81.736 159.153 81.736C158.534 81.736 158.097 81.8427 157.841 82.056C157.596 82.2587 157.42 82.5627 157.313 82.968C157.27 83.0853 157.217 83.1653 157.153 83.208C157.1 83.2507 157.02 83.272 156.913 83.272H156.193C156.097 83.272 156.017 83.2453 155.953 83.192C155.889 83.1387 155.857 83.064 155.857 82.968C155.868 82.648 155.937 82.344 156.065 82.056C156.204 81.768 156.406 81.5067 156.673 81.272C156.95 81.0373 157.292 80.856 157.697 80.728C158.113 80.5893 158.598 80.52 159.153 80.52C159.953 80.52 160.582 80.6427 161.041 80.888C161.51 81.1333 161.841 81.4373 162.033 81.8C162.236 82.152 162.337 82.504 162.337 82.856C162.337 83.272 162.268 83.6187 162.129 83.896C162.001 84.1733 161.745 84.408 161.361 84.6C161.841 84.7813 162.172 85.0533 162.353 85.416C162.534 85.7787 162.63 86.2 162.641 86.68C162.652 87.2347 162.502 87.6933 162.193 88.056C161.894 88.4187 161.484 88.696 160.961 88.888C160.438 89.0693 159.836 89.16 159.153 89.16ZM164.653 89C164.546 89 164.455 88.968 164.381 88.904C164.317 88.8293 164.285 88.7387 164.285 88.632V81.048C164.285 80.9413 164.317 80.856 164.381 80.792C164.455 80.7173 164.546 80.68 164.653 80.68H167.981C168.983 80.68 169.735 80.8827 170.237 81.288C170.749 81.6933 171.005 82.2373 171.005 82.92C171.005 83.4 170.914 83.7627 170.733 84.008C170.551 84.2533 170.295 84.4613 169.965 84.632C170.37 84.8027 170.674 85.08 170.877 85.464C171.09 85.8373 171.197 86.2267 171.197 86.632C171.197 87.4 170.925 87.9867 170.381 88.392C169.837 88.7973 169.079 89 168.109 89H164.653ZM165.757 87.832H167.981C168.493 87.832 168.903 87.736 169.213 87.544C169.533 87.3413 169.693 87.0373 169.693 86.632C169.693 86.2053 169.549 85.896 169.261 85.704C168.973 85.5013 168.546 85.4 167.981 85.4H165.757V87.832ZM165.757 84.216H167.885C168.397 84.216 168.802 84.104 169.101 83.88C169.41 83.656 169.565 83.3413 169.565 82.936C169.565 82.52 169.41 82.2373 169.101 82.088C168.802 81.928 168.397 81.848 167.885 81.848H165.757V84.216ZM173.445 89C173.349 89 173.264 88.968 173.189 88.904C173.125 88.8293 173.093 88.7493 173.093 88.664V81.048C173.093 80.9413 173.125 80.856 173.189 80.792C173.264 80.7173 173.355 80.68 173.461 80.68H174.229C174.336 80.68 174.421 80.7173 174.485 80.792C174.549 80.856 174.581 80.9413 174.581 81.048V87.832L174.165 87.4L179.013 80.92C179.067 80.856 179.125 80.8027 179.189 80.76C179.253 80.7067 179.333 80.68 179.429 80.68H180.165C180.251 80.68 180.325 80.712 180.389 80.776C180.464 80.84 180.501 80.9147 180.501 81V88.632C180.501 88.7387 180.464 88.8293 180.389 88.904C180.325 88.968 180.24 89 180.133 89H179.381C179.264 89 179.173 88.968 179.109 88.904C179.045 88.8293 179.013 88.7387 179.013 88.632V82.248L179.461 82.232L174.581 88.76C174.539 88.8133 174.485 88.8667 174.421 88.92C174.357 88.9733 174.272 89 174.165 89H173.445ZM185.227 89C185.121 89 185.03 88.968 184.955 88.904C184.891 88.8293 184.859 88.7387 184.859 88.632V81.96H182.075C181.969 81.96 181.878 81.928 181.803 81.864C181.739 81.7893 181.707 81.6987 181.707 81.592V81.048C181.707 80.9413 181.739 80.856 181.803 80.792C181.878 80.7173 181.969 80.68 182.075 80.68H189.115C189.222 80.68 189.307 80.7173 189.371 80.792C189.446 80.856 189.483 80.9413 189.483 81.048V81.592C189.483 81.6987 189.446 81.7893 189.371 81.864C189.307 81.928 189.222 81.96 189.115 81.96H186.331V88.632C186.331 88.7387 186.299 88.8293 186.235 88.904C186.171 88.968 186.081 89 185.963 89H185.227ZM191.079 89C190.972 89 190.882 88.968 190.807 88.904C190.743 88.8293 190.711 88.7387 190.711 88.632V81.048C190.711 80.9413 190.743 80.856 190.807 80.792C190.882 80.7173 190.972 80.68 191.079 80.68H191.831C191.938 80.68 192.023 80.7173 192.087 80.792C192.162 80.856 192.199 80.9413 192.199 81.048V84.12H193.655L195.815 80.92C195.868 80.8453 195.927 80.7867 195.991 80.744C196.055 80.7013 196.14 80.68 196.247 80.68H197.079C197.175 80.68 197.255 80.7013 197.319 80.744C197.383 80.7867 197.415 80.8507 197.415 80.936C197.415 80.9573 197.404 80.9893 197.383 81.032C197.372 81.064 197.356 81.096 197.335 81.128L194.935 84.664L197.655 88.536C197.708 88.6 197.735 88.6693 197.735 88.744C197.735 88.8293 197.703 88.8933 197.639 88.936C197.586 88.9787 197.511 89 197.415 89H196.439C196.343 89 196.263 88.9787 196.199 88.936C196.135 88.8933 196.076 88.8347 196.023 88.76L193.671 85.416H192.199V88.632C192.199 88.7387 192.162 88.8293 192.087 88.904C192.023 88.968 191.938 89 191.831 89H191.079ZM199.513 92.04C199.396 92.04 199.305 92.0027 199.241 91.928C199.177 91.864 199.145 91.7787 199.145 91.672V91.128C199.145 91.0213 199.177 90.9307 199.241 90.856C199.305 90.792 199.396 90.76 199.513 90.76H199.929C200.174 90.76 200.372 90.712 200.521 90.616C200.67 90.52 200.804 90.3547 200.921 90.12C201.049 89.896 201.198 89.5867 201.369 89.192L204.841 80.952C204.873 80.8667 204.916 80.8027 204.969 80.76C205.033 80.7067 205.124 80.68 205.241 80.68H205.945C206.041 80.68 206.121 80.712 206.185 80.776C206.249 80.84 206.281 80.9147 206.281 81C206.281 81.0427 206.276 81.0853 206.265 81.128C206.254 81.16 206.233 81.2133 206.201 81.288L203.161 88.488C203.001 88.872 202.825 89.272 202.633 89.688C202.452 90.104 202.244 90.488 202.009 90.84C201.785 91.2027 201.518 91.4907 201.209 91.704C200.9 91.928 200.537 92.04 200.121 92.04H199.513ZM201.737 88.76L198.505 81.288C198.452 81.16 198.425 81.0693 198.425 81.016C198.436 80.92 198.473 80.84 198.537 80.776C198.601 80.712 198.676 80.68 198.761 80.68H199.513C199.63 80.68 199.716 80.7067 199.769 80.76C199.833 80.8133 199.881 80.8773 199.913 80.952L202.569 87.304L201.737 88.76ZM211.865 89C211.758 89 211.667 88.968 211.593 88.904C211.529 88.8293 211.497 88.7387 211.497 88.632V81.048C211.497 80.9413 211.529 80.856 211.593 80.792C211.667 80.7173 211.758 80.68 211.865 80.68H215.193C216.195 80.68 216.947 80.8827 217.449 81.288C217.961 81.6933 218.217 82.2373 218.217 82.92C218.217 83.4 218.126 83.7627 217.945 84.008C217.763 84.2533 217.507 84.4613 217.177 84.632C217.582 84.8027 217.886 85.08 218.089 85.464C218.302 85.8373 218.409 86.2267 218.409 86.632C218.409 87.4 218.137 87.9867 217.593 88.392C217.049 88.7973 216.291 89 215.321 89H211.865ZM212.969 87.832H215.193C215.705 87.832 216.115 87.736 216.425 87.544C216.745 87.3413 216.905 87.0373 216.905 86.632C216.905 86.2053 216.761 85.896 216.473 85.704C216.185 85.5013 215.758 85.4 215.193 85.4H212.969V87.832ZM212.969 84.216H215.097C215.609 84.216 216.014 84.104 216.313 83.88C216.622 83.656 216.777 83.3413 216.777 82.936C216.777 82.52 216.622 82.2373 216.313 82.088C216.014 81.928 215.609 81.848 215.097 81.848H212.969V84.216ZM222.625 89.16C222.092 89.16 221.607 89.0533 221.169 88.84C220.732 88.6267 220.38 88.3387 220.113 87.976C219.847 87.6133 219.713 87.2027 219.713 86.744C219.713 86.008 220.012 85.4213 220.609 84.984C221.207 84.5467 221.985 84.2587 222.945 84.12L225.329 83.784V83.32C225.329 82.808 225.18 82.408 224.881 82.12C224.593 81.832 224.119 81.688 223.457 81.688C222.977 81.688 222.588 81.784 222.289 81.976C222.001 82.168 221.799 82.4133 221.681 82.712C221.617 82.872 221.505 82.952 221.345 82.952H220.625C220.508 82.952 220.417 82.92 220.353 82.856C220.3 82.7813 220.273 82.696 220.273 82.6C220.273 82.44 220.332 82.2427 220.449 82.008C220.577 81.7733 220.769 81.544 221.025 81.32C221.281 81.096 221.607 80.9093 222.001 80.76C222.407 80.6 222.897 80.52 223.473 80.52C224.113 80.52 224.652 80.6053 225.089 80.776C225.527 80.936 225.868 81.1547 226.113 81.432C226.369 81.7093 226.551 82.024 226.657 82.376C226.775 82.728 226.833 83.0853 226.833 83.448V88.632C226.833 88.7387 226.796 88.8293 226.721 88.904C226.657 88.968 226.572 89 226.465 89H225.729C225.612 89 225.521 88.968 225.457 88.904C225.393 88.8293 225.361 88.7387 225.361 88.632V87.944C225.223 88.136 225.036 88.328 224.801 88.52C224.567 88.7013 224.273 88.856 223.921 88.984C223.569 89.1013 223.137 89.16 222.625 89.16ZM222.961 87.96C223.399 87.96 223.799 87.8693 224.161 87.688C224.524 87.496 224.807 87.2027 225.009 86.808C225.223 86.4133 225.329 85.9173 225.329 85.32V84.872L223.473 85.144C222.716 85.2507 222.145 85.432 221.761 85.688C221.377 85.9333 221.185 86.248 221.185 86.632C221.185 86.9307 221.271 87.1813 221.441 87.384C221.623 87.576 221.847 87.72 222.113 87.816C222.391 87.912 222.673 87.96 222.961 87.96ZM229.341 89C229.235 89 229.144 88.968 229.069 88.904C229.005 88.8293 228.973 88.7387 228.973 88.632V81.048C228.973 80.9413 229.005 80.856 229.069 80.792C229.144 80.7173 229.235 80.68 229.341 80.68H230.077C230.184 80.68 230.269 80.7173 230.333 80.792C230.408 80.856 230.445 80.9413 230.445 81.048V87.72H233.373V81.048C233.373 80.9413 233.405 80.856 233.469 80.792C233.544 80.7173 233.635 80.68 233.741 80.68H234.413C234.531 80.68 234.621 80.7173 234.685 80.792C234.749 80.856 234.781 80.9413 234.781 81.048V87.72H237.709V81.048C237.709 80.9413 237.741 80.856 237.805 80.792C237.88 80.7173 237.971 80.68 238.077 80.68H238.813C238.92 80.68 239.005 80.7173 239.069 80.792C239.144 80.856 239.181 80.9413 239.181 81.048V88.632C239.181 88.7387 239.144 88.8293 239.069 88.904C239.005 88.968 238.92 89 238.813 89H229.341ZM244.815 89.16C244.004 89.16 243.327 89.0053 242.783 88.696C242.239 88.3867 241.823 87.96 241.535 87.416C241.247 86.8613 241.087 86.232 241.055 85.528C241.044 85.3467 241.039 85.1173 241.039 84.84C241.039 84.552 241.044 84.3227 241.055 84.152C241.087 83.4373 241.247 82.808 241.535 82.264C241.834 81.72 242.255 81.2933 242.799 80.984C243.343 80.6747 244.015 80.52 244.815 80.52C245.615 80.52 246.287 80.6747 246.831 80.984C247.375 81.2933 247.791 81.72 248.079 82.264C248.378 82.808 248.543 83.4373 248.575 84.152C248.586 84.3227 248.591 84.552 248.591 84.84C248.591 85.1173 248.586 85.3467 248.575 85.528C248.543 86.232 248.383 86.8613 248.095 87.416C247.807 87.96 247.391 88.3867 246.847 88.696C246.303 89.0053 245.626 89.16 244.815 89.16ZM244.815 87.928C245.476 87.928 246.004 87.72 246.399 87.304C246.794 86.8773 247.007 86.2587 247.039 85.448C247.05 85.288 247.055 85.0853 247.055 84.84C247.055 84.5947 247.05 84.392 247.039 84.232C247.007 83.4213 246.794 82.808 246.399 82.392C246.004 81.9653 245.476 81.752 244.815 81.752C244.154 81.752 243.62 81.9653 243.215 82.392C242.82 82.808 242.612 83.4213 242.591 84.232C242.58 84.392 242.575 84.5947 242.575 84.84C242.575 85.0853 242.58 85.288 242.591 85.448C242.612 86.2587 242.82 86.8773 243.215 87.304C243.62 87.72 244.154 87.928 244.815 87.928ZM250.803 89C250.696 89 250.605 88.968 250.531 88.904C250.467 88.8293 250.435 88.7387 250.435 88.632V81.048C250.435 80.9413 250.467 80.856 250.531 80.792C250.605 80.7173 250.696 80.68 250.803 80.68H255.587C255.693 80.68 255.779 80.7173 255.843 80.792C255.907 80.856 255.939 80.9413 255.939 81.048V81.592C255.939 81.6987 255.907 81.7893 255.843 81.864C255.779 81.928 255.693 81.96 255.587 81.96H251.923V88.632C251.923 88.7387 251.891 88.8293 251.827 88.904C251.763 88.968 251.677 89 251.571 89H250.803ZM260.386 89.16C259.575 89.16 258.898 89.0053 258.354 88.696C257.81 88.3867 257.394 87.96 257.106 87.416C256.818 86.8613 256.658 86.232 256.626 85.528C256.615 85.3467 256.61 85.1173 256.61 84.84C256.61 84.552 256.615 84.3227 256.626 84.152C256.658 83.4373 256.818 82.808 257.106 82.264C257.404 81.72 257.826 81.2933 258.37 80.984C258.914 80.6747 259.586 80.52 260.386 80.52C261.186 80.52 261.858 80.6747 262.402 80.984C262.946 81.2933 263.362 81.72 263.65 82.264C263.948 82.808 264.114 83.4373 264.146 84.152C264.156 84.3227 264.162 84.552 264.162 84.84C264.162 85.1173 264.156 85.3467 264.146 85.528C264.114 86.232 263.954 86.8613 263.666 87.416C263.378 87.96 262.962 88.3867 262.418 88.696C261.874 89.0053 261.196 89.16 260.386 89.16ZM260.386 87.928C261.047 87.928 261.575 87.72 261.97 87.304C262.364 86.8773 262.578 86.2587 262.61 85.448C262.62 85.288 262.626 85.0853 262.626 84.84C262.626 84.5947 262.62 84.392 262.61 84.232C262.578 83.4213 262.364 82.808 261.97 82.392C261.575 81.9653 261.047 81.752 260.386 81.752C259.724 81.752 259.191 81.9653 258.786 82.392C258.391 82.808 258.183 83.4213 258.162 84.232C258.151 84.392 258.146 84.5947 258.146 84.84C258.146 85.0853 258.151 85.288 258.162 85.448C258.183 86.2587 258.391 86.8773 258.786 87.304C259.191 87.72 259.724 87.928 260.386 87.928ZM273.287 89.16C272.466 89.16 271.778 89.0053 271.223 88.696C270.679 88.376 270.263 87.928 269.975 87.352C269.698 86.7653 269.548 86.088 269.527 85.32C269.516 85 269.511 84.68 269.511 84.36C269.511 84.04 269.516 83.72 269.527 83.4C269.527 82.4293 269.607 81.624 269.767 80.984C269.927 80.344 270.167 79.8213 270.487 79.416C270.818 79 271.234 78.6587 271.735 78.392C272.236 78.1253 272.828 77.896 273.511 77.704C274.194 77.5013 274.972 77.288 275.847 77.064C275.943 77.0427 276.034 77.0587 276.119 77.112C276.215 77.1653 276.268 77.24 276.279 77.336L276.407 77.992C276.428 78.088 276.412 78.1733 276.359 78.248C276.316 78.3227 276.247 78.3707 276.151 78.392C275.351 78.5947 274.652 78.7707 274.055 78.92C273.458 79.0693 272.956 79.2453 272.551 79.448C272.146 79.64 271.82 79.8907 271.575 80.2C271.33 80.5093 271.159 80.92 271.063 81.432C270.978 81.944 270.951 82.6 270.983 83.4L270.631 83.256C270.684 82.8613 270.85 82.504 271.127 82.184C271.415 81.8533 271.772 81.5867 272.199 81.384C272.626 81.1813 273.079 81.08 273.559 81.08C274.295 81.08 274.914 81.2347 275.415 81.544C275.927 81.8533 276.316 82.2747 276.583 82.808C276.86 83.3413 277.015 83.9547 277.047 84.648C277.068 85.0107 277.068 85.3253 277.047 85.592C277.015 86.2853 276.855 86.904 276.567 87.448C276.279 87.9813 275.863 88.4027 275.319 88.712C274.775 89.0107 274.098 89.16 273.287 89.16ZM273.287 87.976C273.959 87.976 274.492 87.768 274.887 87.352C275.282 86.936 275.49 86.328 275.511 85.528C275.522 85.4213 275.527 85.2987 275.527 85.16C275.527 85.0213 275.522 84.8773 275.511 84.728C275.49 83.9173 275.282 83.304 274.887 82.888C274.503 82.472 274.018 82.264 273.431 82.264C272.759 82.264 272.204 82.472 271.767 82.888C271.33 83.304 271.095 83.9173 271.063 84.728C271.052 84.8773 271.047 85.0213 271.047 85.16C271.047 85.2987 271.052 85.4213 271.063 85.528C271.095 86.328 271.308 86.936 271.703 87.352C272.098 87.768 272.626 87.976 273.287 87.976ZM279.272 89C279.165 89 279.075 88.968 279 88.904C278.936 88.8293 278.904 88.7387 278.904 88.632V81.048C278.904 80.9413 278.936 80.856 279 80.792C279.075 80.7173 279.165 80.68 279.272 80.68H280.04C280.147 80.68 280.232 80.7173 280.296 80.792C280.36 80.856 280.392 80.9413 280.392 81.048V88.632C280.392 88.7387 280.36 88.8293 280.296 88.904C280.232 88.968 280.147 89 280.04 89H279.272ZM279.144 79.128C279.037 79.128 278.947 79.096 278.872 79.032C278.808 78.9573 278.776 78.8667 278.776 78.76V77.896C278.776 77.7893 278.808 77.704 278.872 77.64C278.947 77.5653 279.037 77.528 279.144 77.528H280.152C280.259 77.528 280.344 77.5653 280.408 77.64C280.483 77.704 280.52 77.7893 280.52 77.896V78.76C280.52 78.8667 280.483 78.9573 280.408 79.032C280.344 79.096 280.259 79.128 280.152 79.128H279.144ZM285.515 89.16C284.886 89.16 284.352 89.0853 283.915 88.936C283.488 88.776 283.142 88.5787 282.875 88.344C282.619 88.0987 282.432 87.848 282.315 87.592C282.198 87.3253 282.134 87.08 282.123 86.856C282.123 86.76 282.155 86.6853 282.219 86.632C282.283 86.568 282.358 86.536 282.443 86.536H283.195C283.291 86.536 283.371 86.5627 283.435 86.616C283.499 86.6587 283.547 86.7387 283.579 86.856C283.707 87.2613 283.952 87.544 284.315 87.704C284.678 87.864 285.12 87.944 285.643 87.944C285.984 87.944 286.299 87.9013 286.587 87.816C286.875 87.72 287.099 87.5707 287.259 87.368C287.43 87.1653 287.515 86.9147 287.515 86.616C287.515 86.1787 287.387 85.848 287.131 85.624C286.886 85.4 286.502 85.288 285.979 85.288H285.099C284.992 85.288 284.907 85.256 284.843 85.192C284.779 85.128 284.747 85.0427 284.747 84.936V84.504C284.747 84.408 284.779 84.328 284.843 84.264C284.907 84.1893 284.992 84.152 285.099 84.152H285.883C286.32 84.152 286.656 84.0667 286.891 83.896C287.126 83.7253 287.243 83.4533 287.243 83.08C287.243 82.856 287.19 82.6427 287.083 82.44C286.976 82.2373 286.795 82.072 286.539 81.944C286.294 81.8053 285.952 81.736 285.515 81.736C284.896 81.736 284.459 81.8427 284.203 82.056C283.958 82.2587 283.782 82.5627 283.675 82.968C283.632 83.0853 283.579 83.1653 283.515 83.208C283.462 83.2507 283.382 83.272 283.275 83.272H282.555C282.459 83.272 282.379 83.2453 282.315 83.192C282.251 83.1387 282.219 83.064 282.219 82.968C282.23 82.648 282.299 82.344 282.427 82.056C282.566 81.768 282.768 81.5067 283.035 81.272C283.312 81.0373 283.654 80.856 284.059 80.728C284.475 80.5893 284.96 80.52 285.515 80.52C286.315 80.52 286.944 80.6427 287.403 80.888C287.872 81.1333 288.203 81.4373 288.395 81.8C288.598 82.152 288.699 82.504 288.699 82.856C288.699 83.272 288.63 83.6187 288.491 83.896C288.363 84.1733 288.107 84.408 287.723 84.6C288.203 84.7813 288.534 85.0533 288.715 85.416C288.896 85.7787 288.992 86.2 289.003 86.68C289.014 87.2347 288.864 87.6933 288.555 88.056C288.256 88.4187 287.846 88.696 287.323 88.888C286.8 89.0693 286.198 89.16 285.515 89.16ZM291.014 89C290.908 89 290.817 88.968 290.742 88.904C290.678 88.8293 290.646 88.7387 290.646 88.632V81.048C290.646 80.9413 290.678 80.856 290.742 80.792C290.817 80.7173 290.908 80.68 291.014 80.68H291.782C291.889 80.68 291.974 80.7173 292.038 80.792C292.102 80.856 292.134 80.9413 292.134 81.048V84.12H296.502V81.048C296.502 80.9413 296.534 80.856 296.598 80.792C296.673 80.7173 296.764 80.68 296.87 80.68H297.622C297.729 80.68 297.814 80.7173 297.878 80.792C297.953 80.856 297.99 80.9413 297.99 81.048V88.632C297.99 88.7387 297.953 88.8293 297.878 88.904C297.814 88.968 297.729 89 297.622 89H296.87C296.764 89 296.673 88.968 296.598 88.904C296.534 88.8293 296.502 88.7387 296.502 88.632V85.4H292.134V88.632C292.134 88.7387 292.102 88.8293 292.038 88.904C291.974 88.968 291.889 89 291.782 89H291.014ZM303.548 89.16C302.45 89.16 301.575 88.824 300.924 88.152C300.274 87.4693 299.916 86.5413 299.852 85.368C299.842 85.2293 299.836 85.0533 299.836 84.84C299.836 84.616 299.842 84.4347 299.852 84.296C299.895 83.5387 300.071 82.8773 300.38 82.312C300.69 81.736 301.111 81.2933 301.644 80.984C302.188 80.6747 302.823 80.52 303.548 80.52C304.359 80.52 305.036 80.6907 305.58 81.032C306.135 81.3733 306.556 81.8587 306.844 82.488C307.132 83.1173 307.276 83.8533 307.276 84.696V84.968C307.276 85.0853 307.239 85.176 307.164 85.24C307.1 85.304 307.015 85.336 306.908 85.336H301.372C301.372 85.3467 301.372 85.368 301.372 85.4C301.372 85.432 301.372 85.4587 301.372 85.48C301.394 85.9173 301.49 86.328 301.66 86.712C301.831 87.0853 302.076 87.3893 302.396 87.624C302.716 87.8587 303.1 87.976 303.548 87.976C303.932 87.976 304.252 87.9173 304.508 87.8C304.764 87.6827 304.972 87.5547 305.132 87.416C305.292 87.2667 305.399 87.1547 305.452 87.08C305.548 86.9413 305.623 86.8613 305.676 86.84C305.73 86.808 305.815 86.792 305.932 86.792H306.7C306.807 86.792 306.892 86.824 306.956 86.888C307.031 86.9413 307.063 87.0213 307.052 87.128C307.042 87.288 306.956 87.4853 306.796 87.72C306.636 87.944 306.407 88.168 306.108 88.392C305.81 88.616 305.447 88.8027 305.02 88.952C304.594 89.0907 304.103 89.16 303.548 89.16ZM301.372 84.232H305.756V84.184C305.756 83.704 305.666 83.2773 305.484 82.904C305.314 82.5307 305.063 82.2373 304.732 82.024C304.402 81.8 304.007 81.688 303.548 81.688C303.09 81.688 302.695 81.8 302.364 82.024C302.044 82.2373 301.799 82.5307 301.628 82.904C301.458 83.2773 301.372 83.704 301.372 84.184V84.232ZM312.39 89.16C311.632 89.16 310.976 89.016 310.422 88.728C309.878 88.4293 309.456 88.008 309.158 87.464C308.859 86.9093 308.699 86.248 308.678 85.48C308.667 85.32 308.662 85.1067 308.662 84.84C308.662 84.5733 308.667 84.36 308.678 84.2C308.699 83.432 308.859 82.776 309.158 82.232C309.456 81.6773 309.878 81.256 310.422 80.968C310.976 80.6693 311.632 80.52 312.39 80.52C313.008 80.52 313.536 80.6053 313.974 80.776C314.422 80.9467 314.79 81.1653 315.078 81.432C315.366 81.6987 315.579 81.9867 315.718 82.296C315.867 82.6053 315.947 82.8987 315.958 83.176C315.968 83.2827 315.936 83.368 315.862 83.432C315.787 83.496 315.696 83.528 315.59 83.528H314.822C314.715 83.528 314.635 83.5067 314.582 83.464C314.528 83.4107 314.475 83.3253 314.422 83.208C314.23 82.6853 313.968 82.3173 313.638 82.104C313.307 81.8907 312.896 81.784 312.406 81.784C311.766 81.784 311.243 81.9813 310.838 82.376C310.443 82.7707 310.23 83.4053 310.198 84.28C310.187 84.664 310.187 85.0373 310.198 85.4C310.23 86.2853 310.443 86.9253 310.838 87.32C311.243 87.704 311.766 87.896 312.406 87.896C312.896 87.896 313.307 87.7893 313.638 87.576C313.968 87.3627 314.23 86.9947 314.422 86.472C314.475 86.3547 314.528 86.2747 314.582 86.232C314.635 86.1787 314.715 86.152 314.822 86.152H315.59C315.696 86.152 315.787 86.184 315.862 86.248C315.936 86.312 315.968 86.3973 315.958 86.504C315.947 86.728 315.899 86.9573 315.814 87.192C315.728 87.4267 315.59 87.6667 315.398 87.912C315.216 88.1467 314.987 88.36 314.71 88.552C314.432 88.7333 314.096 88.8827 313.702 89C313.318 89.1067 312.88 89.16 312.39 89.16ZM318.082 92.04C317.964 92.04 317.874 92.0027 317.81 91.928C317.746 91.864 317.714 91.7787 317.714 91.672V91.128C317.714 91.0213 317.746 90.9307 317.81 90.856C317.874 90.792 317.964 90.76 318.082 90.76H318.498C318.743 90.76 318.94 90.712 319.09 90.616C319.239 90.52 319.372 90.3547 319.49 90.12C319.618 89.896 319.767 89.5867 319.938 89.192L323.41 80.952C323.442 80.8667 323.484 80.8027 323.538 80.76C323.602 80.7067 323.692 80.68 323.81 80.68H324.514C324.61 80.68 324.69 80.712 324.754 80.776C324.818 80.84 324.85 80.9147 324.85 81C324.85 81.0427 324.844 81.0853 324.834 81.128C324.823 81.16 324.802 81.2133 324.77 81.288L321.73 88.488C321.57 88.872 321.394 89.272 321.202 89.688C321.02 90.104 320.812 90.488 320.578 90.84C320.354 91.2027 320.087 91.4907 319.778 91.704C319.468 91.928 319.106 92.04 318.69 92.04H318.082ZM320.306 88.76L317.074 81.288C317.02 81.16 316.994 81.0693 316.994 81.016C317.004 80.92 317.042 80.84 317.106 80.776C317.17 80.712 317.244 80.68 317.33 80.68H318.082C318.199 80.68 318.284 80.7067 318.338 80.76C318.402 80.8133 318.45 80.8773 318.482 80.952L321.138 87.304L320.306 88.76Z" fill="white"/>
</svg>
