<svg width="153" height="40" viewBox="0 0 153 40" fill="none" xmlns="http://www.w3.org/2000/svg">
<path d="M19.824 28.24C18.288 28.24 17 28.016 15.96 27.568C14.936 27.12 14.16 26.536 13.632 25.816C13.104 25.096 12.824 24.328 12.792 23.512C12.792 23.384 12.84 23.272 12.936 23.176C13.032 23.064 13.152 23.008 13.296 23.008H15.864C16.072 23.008 16.232 23.056 16.344 23.152C16.456 23.232 16.56 23.336 16.656 23.464C16.768 23.736 16.944 24 17.184 24.256C17.44 24.512 17.784 24.728 18.216 24.904C18.648 25.064 19.184 25.144 19.824 25.144C20.864 25.144 21.64 24.976 22.152 24.64C22.68 24.304 22.944 23.848 22.944 23.272C22.944 22.856 22.8 22.52 22.512 22.264C22.24 22.008 21.8 21.776 21.192 21.568C20.6 21.36 19.808 21.136 18.816 20.896C17.616 20.64 16.592 20.312 15.744 19.912C14.912 19.496 14.28 18.968 13.848 18.328C13.432 17.672 13.224 16.864 13.224 15.904C13.224 14.944 13.488 14.096 14.016 13.36C14.544 12.608 15.288 12.024 16.248 11.608C17.208 11.176 18.352 10.96 19.68 10.96C20.752 10.96 21.696 11.104 22.512 11.392C23.344 11.68 24.032 12.056 24.576 12.52C25.136 12.984 25.56 13.48 25.848 14.008C26.136 14.536 26.288 15.048 26.304 15.544C26.304 15.672 26.256 15.792 26.16 15.904C26.064 16 25.944 16.048 25.8 16.048H23.112C22.952 16.048 22.808 16.016 22.68 15.952C22.552 15.888 22.448 15.776 22.368 15.616C22.272 15.2 21.984 14.84 21.504 14.536C21.04 14.216 20.432 14.056 19.68 14.056C18.896 14.056 18.272 14.2 17.808 14.488C17.36 14.776 17.136 15.216 17.136 15.808C17.136 16.192 17.248 16.52 17.472 16.792C17.712 17.048 18.104 17.28 18.648 17.488C19.208 17.68 19.944 17.896 20.856 18.136C22.264 18.424 23.408 18.768 24.288 19.168C25.168 19.568 25.816 20.088 26.232 20.728C26.648 21.352 26.856 22.144 26.856 23.104C26.856 24.176 26.552 25.096 25.944 25.864C25.352 26.632 24.528 27.224 23.472 27.64C22.432 28.04 21.216 28.24 19.824 28.24ZM33.7206 28C33.5446 28 33.4006 27.944 33.2886 27.832C33.1766 27.72 33.1206 27.576 33.1206 27.4V22.12L27.5046 11.968C27.4886 11.92 27.4726 11.88 27.4566 11.848C27.4406 11.8 27.4326 11.752 27.4326 11.704C27.4326 11.576 27.4806 11.464 27.5766 11.368C27.6886 11.256 27.8086 11.2 27.9366 11.2H30.4806C30.7046 11.2 30.8806 11.256 31.0086 11.368C31.1366 11.48 31.2246 11.584 31.2726 11.68L35.0406 18.28L38.8086 11.68C38.8566 11.584 38.9446 11.48 39.0726 11.368C39.2006 11.256 39.3766 11.2 39.6006 11.2H42.1446C42.2726 11.2 42.3846 11.256 42.4806 11.368C42.5926 11.464 42.6486 11.576 42.6486 11.704C42.6486 11.752 42.6406 11.8 42.6246 11.848C42.6086 11.88 42.5926 11.92 42.5766 11.968L36.9606 22.12V27.4C36.9606 27.576 36.9046 27.72 36.7926 27.832C36.6806 27.944 36.5366 28 36.3606 28H33.7206ZM45.4776 28C45.3176 28 45.1736 27.944 45.0456 27.832C44.9336 27.72 44.8776 27.576 44.8776 27.4V11.8C44.8776 11.624 44.9336 11.48 45.0456 11.368C45.1736 11.256 45.3176 11.2 45.4776 11.2H47.7096C47.9496 11.2 48.1256 11.264 48.2376 11.392C48.3656 11.52 48.4536 11.616 48.5016 11.68L52.9176 19.816L57.3816 11.68C57.4136 11.616 57.4856 11.52 57.5976 11.392C57.7256 11.264 57.9096 11.2 58.1496 11.2H60.3816C60.5576 11.2 60.7016 11.256 60.8136 11.368C60.9256 11.48 60.9816 11.624 60.9816 11.8V27.4C60.9816 27.576 60.9256 27.72 60.8136 27.832C60.7016 27.944 60.5576 28 60.3816 28H57.9336C57.7736 28 57.6376 27.944 57.5256 27.832C57.4136 27.72 57.3576 27.576 57.3576 27.4V17.704L54.3096 23.416C54.2296 23.56 54.1256 23.688 53.9976 23.8C53.8696 23.912 53.7016 23.968 53.4936 23.968H52.3656C52.1576 23.968 51.9896 23.912 51.8616 23.8C51.7336 23.688 51.6296 23.56 51.5496 23.416L48.5016 17.704V27.4C48.5016 27.576 48.4456 27.72 48.3336 27.832C48.2216 27.944 48.0856 28 47.9256 28H45.4776ZM65.1416 28C64.9656 28 64.8216 27.944 64.7096 27.832C64.5976 27.72 64.5416 27.576 64.5416 27.4V11.8C64.5416 11.624 64.5976 11.48 64.7096 11.368C64.8216 11.256 64.9656 11.2 65.1416 11.2H71.6936C72.9896 11.2 74.1096 11.4 75.0536 11.8C76.0136 12.2 76.7576 12.808 77.2856 13.624C77.8296 14.424 78.1016 15.424 78.1016 16.624C78.1016 17.84 77.8296 18.848 77.2856 19.648C76.7576 20.432 76.0136 21.016 75.0536 21.4C74.1096 21.784 72.9896 21.976 71.6936 21.976H68.4776V27.4C68.4776 27.576 68.4216 27.72 68.3096 27.832C68.1976 27.944 68.0536 28 67.8776 28H65.1416ZM68.4056 19H71.5736C72.3896 19 73.0216 18.8 73.4696 18.4C73.9336 18 74.1656 17.4 74.1656 16.6C74.1656 15.896 73.9576 15.32 73.5416 14.872C73.1416 14.424 72.4856 14.2 71.5736 14.2H68.4056V19ZM81.1494 28C80.9734 28 80.8294 27.944 80.7174 27.832C80.6054 27.72 80.5494 27.576 80.5494 27.4V11.8C80.5494 11.624 80.6054 11.48 80.7174 11.368C80.8294 11.256 80.9734 11.2 81.1494 11.2H83.8134C83.9894 11.2 84.1334 11.256 84.2454 11.368C84.3574 11.48 84.4134 11.624 84.4134 11.8V24.784H91.8534C92.0294 24.784 92.1734 24.84 92.2854 24.952C92.3974 25.064 92.4534 25.208 92.4534 25.384V27.4C92.4534 27.576 92.3974 27.72 92.2854 27.832C92.1734 27.944 92.0294 28 91.8534 28H81.1494ZM95.2588 28C95.0828 28 94.9388 27.944 94.8268 27.832C94.7148 27.72 94.6588 27.576 94.6588 27.4V11.8C94.6588 11.624 94.7148 11.48 94.8268 11.368C94.9388 11.256 95.0828 11.2 95.2588 11.2H106.131C106.307 11.2 106.451 11.256 106.563 11.368C106.675 11.48 106.731 11.624 106.731 11.8V13.72C106.731 13.88 106.675 14.016 106.563 14.128C106.451 14.24 106.307 14.296 106.131 14.296H98.3548V18.064H105.603C105.779 18.064 105.923 18.12 106.035 18.232C106.147 18.344 106.203 18.488 106.203 18.664V20.44C106.203 20.6 106.147 20.736 106.035 20.848C105.923 20.96 105.779 21.016 105.603 21.016H98.3548V24.904H106.323C106.499 24.904 106.643 24.96 106.755 25.072C106.867 25.184 106.923 25.328 106.923 25.504V27.4C106.923 27.576 106.867 27.72 106.755 27.832C106.643 27.944 106.499 28 106.323 28H95.2588ZM108.864 28C108.72 28 108.6 27.952 108.504 27.856C108.408 27.744 108.36 27.624 108.36 27.496C108.36 27.448 108.368 27.4 108.384 27.352C108.4 27.304 108.416 27.256 108.432 27.208L113.736 19.432L108.792 11.992C108.744 11.896 108.72 11.8 108.72 11.704C108.72 11.576 108.768 11.464 108.864 11.368C108.96 11.256 109.08 11.2 109.224 11.2H112.176C112.384 11.2 112.544 11.256 112.656 11.368C112.784 11.48 112.88 11.584 112.944 11.68L116.16 16.456L119.4 11.68C119.464 11.584 119.56 11.48 119.688 11.368C119.816 11.256 119.984 11.2 120.192 11.2H123C123.128 11.2 123.24 11.256 123.336 11.368C123.448 11.464 123.504 11.576 123.504 11.704C123.504 11.816 123.472 11.912 123.408 11.992L118.464 19.408L123.792 27.208C123.824 27.256 123.84 27.304 123.84 27.352C123.856 27.4 123.864 27.448 123.864 27.496C123.864 27.624 123.816 27.744 123.72 27.856C123.624 27.952 123.504 28 123.36 28H120.312C120.104 28 119.936 27.944 119.808 27.832C119.696 27.72 119.608 27.624 119.544 27.544L116.04 22.504L112.56 27.544C112.512 27.624 112.424 27.72 112.296 27.832C112.184 27.944 112.016 28 111.792 28H108.864ZM130.963 28C130.787 28 130.643 27.944 130.531 27.832C130.419 27.72 130.363 27.576 130.363 27.4V22.12L124.747 11.968C124.731 11.92 124.715 11.88 124.699 11.848C124.683 11.8 124.675 11.752 124.675 11.704C124.675 11.576 124.723 11.464 124.819 11.368C124.931 11.256 125.051 11.2 125.179 11.2H127.723C127.947 11.2 128.123 11.256 128.251 11.368C128.379 11.48 128.467 11.584 128.515 11.68L132.283 18.28L136.051 11.68C136.099 11.584 136.187 11.48 136.315 11.368C136.443 11.256 136.619 11.2 136.843 11.2H139.387C139.515 11.2 139.627 11.256 139.723 11.368C139.835 11.464 139.891 11.576 139.891 11.704C139.891 11.752 139.883 11.8 139.867 11.848C139.851 11.88 139.835 11.92 139.819 11.968L134.203 22.12V27.4C134.203 27.576 134.147 27.72 134.035 27.832C133.923 27.944 133.779 28 133.603 28H130.963Z" fill="#223A6B"/>
</svg>
