<svg width="24" height="24" viewBox="0 0 24 24" fill="none" xmlns="http://www.w3.org/2000/svg">
<path d="M15.536 11.2928C15.3485 11.4804 15.2432 11.7347 15.2432 11.9998C15.2432 12.265 15.3485 12.5193 15.536 12.7068L17.912 15.0838C18.0995 15.2713 18.3538 15.3766 18.6189 15.3766C18.8841 15.3766 19.1384 15.2713 19.326 15.0838L21.7029 12.7068C21.8904 12.5193 21.9957 12.265 21.9957 11.9998C21.9957 11.7347 21.8904 11.4804 21.7029 11.2928L19.326 8.91583C19.1384 8.72836 18.8841 8.62305 18.6189 8.62305C18.3538 8.62305 18.0995 8.72836 17.912 8.91583L15.536 11.2928Z" stroke="#4B7DE8" stroke-width="2" stroke-linecap="round" stroke-linejoin="round"/>
<path d="M2.29669 11.2928C2.10922 11.4804 2.00391 11.7347 2.00391 11.9998C2.00391 12.265 2.10922 12.5193 2.29669 12.7068L4.67369 15.0838C4.86122 15.2713 5.11553 15.3766 5.38069 15.3766C5.64586 15.3766 5.90016 15.2713 6.08769 15.0838L8.46469 12.7068C8.65216 12.5193 8.75748 12.265 8.75748 11.9998C8.75748 11.7347 8.65216 11.4804 8.46469 11.2928L6.08769 8.91583C5.90016 8.72836 5.64586 8.62305 5.38069 8.62305C5.11553 8.62305 4.86122 8.72836 4.67369 8.91583L2.29669 11.2928Z" stroke="#4B7DE8" stroke-width="2" stroke-linecap="round" stroke-linejoin="round"/>
<path d="M8.91633 17.912C8.82336 18.0048 8.7496 18.1151 8.69927 18.2365C8.64895 18.3579 8.62305 18.488 8.62305 18.6194C8.62305 18.7509 8.64895 18.881 8.69927 19.0024C8.7496 19.1238 8.82336 19.2341 8.91633 19.327L11.2933 21.7029C11.4809 21.8904 11.7352 21.9957 12.0003 21.9957C12.2655 21.9957 12.5198 21.8904 12.7073 21.7029L15.0843 19.327C15.1773 19.2341 15.2511 19.1238 15.3014 19.0024C15.3517 18.881 15.3776 18.7509 15.3776 18.6194C15.3776 18.488 15.3517 18.3579 15.3014 18.2365C15.2511 18.1151 15.1773 18.0048 15.0843 17.912L12.7073 15.536C12.5198 15.3485 12.2655 15.2432 12.0003 15.2432C11.7352 15.2432 11.4809 15.3485 11.2933 15.536L8.91633 17.912Z" stroke="#4B7DE8" stroke-width="2" stroke-linecap="round" stroke-linejoin="round"/>
<path d="M8.91583 4.67369C8.72836 4.86122 8.62305 5.11553 8.62305 5.38069C8.62305 5.64586 8.72836 5.90016 8.91583 6.08769L11.2928 8.46369C11.4804 8.65116 11.7347 8.75648 11.9998 8.75648C12.265 8.75648 12.5193 8.65116 12.7068 8.46369L15.0838 6.08769C15.2713 5.90016 15.3766 5.64586 15.3766 5.38069C15.3766 5.11553 15.2713 4.86122 15.0838 4.67369L12.7068 2.29669C12.5193 2.10922 12.265 2.00391 11.9998 2.00391C11.7347 2.00391 11.4804 2.10922 11.2928 2.29669L8.91583 4.67369Z" stroke="#4B7DE8" stroke-width="2" stroke-linecap="round" stroke-linejoin="round"/>
</svg>
